<svg xmlns="http://www.w3.org/2000/svg" viewBox="0 0 500 500"><g id="freepik--background-complete--inject-61"><path d="M444.71,349.14H264a5.87,5.87,0,0,1-5.86-5.86V80A5.87,5.87,0,0,1,264,74.15H444.71A5.87,5.87,0,0,1,450.57,80V343.28A5.87,5.87,0,0,1,444.71,349.14ZM264,74.4A5.61,5.61,0,0,0,258.35,80V343.28a5.61,5.61,0,0,0,5.61,5.61H444.71a5.61,5.61,0,0,0,5.61-5.61V80a5.61,5.61,0,0,0-5.61-5.61Z" style="fill:#f0f0f0"></path><path d="M236.28,349.14H55.53a5.87,5.87,0,0,1-5.86-5.86V80a5.87,5.87,0,0,1,5.86-5.86H236.28A5.87,5.87,0,0,1,242.14,80V343.28A5.87,5.87,0,0,1,236.28,349.14ZM55.53,74.4A5.61,5.61,0,0,0,49.92,80V343.28a5.61,5.61,0,0,0,5.61,5.61H236.28c3.1,0,5.61-2.51,6.34-6.16V79.45a7,7,0,0,0-6.34-5Z" style="fill:#f0f0f0"></path><rect y="410.21" width="500" height="0.25" style="fill:#f0f0f0"></rect><path d="M178.21,95.53h-5.27v4.61a11.6,11.6,0,0,0-4.38,1.79l-3.49-3.5-3.73,3.73,3.6,3.6a11.69,11.69,0,0,0-1.25,2.95h-4.81V114h4.61a11.88,11.88,0,0,0,1.78,4.38l-3.05,3,3.72,3.73,3.17-3.16a11.73,11.73,0,0,0,3.83,1.45V128h5.27v-4.81a11.69,11.69,0,0,0,4-2l3.51,3.52,3.73-3.73-3.81-3.81a11.52,11.52,0,0,0,1.13-3.27h4.61v-5.28h-4.81a11.69,11.69,0,0,0-1.25-2.95l3.6-3.6-3.73-3.73-3.49,3.5a11.8,11.8,0,0,0-3.5-1.58ZM180,111.79a4.84,4.84,0,1,1-4.83-4.83A4.84,4.84,0,0,1,180,111.79Z" style="fill:#f5f5f5"></path><path d="M81.34,151H76.07v4.6a11.76,11.76,0,0,0-4.38,1.79l-3.5-3.5-3.72,3.73,3.6,3.6a11.92,11.92,0,0,0-1.25,3H62v5.27h4.6a12,12,0,0,0,1.79,4.38l-3.05,3,3.72,3.73,3.16-3.16a11.88,11.88,0,0,0,3.84,1.45v4.61h5.27V178.7a11.69,11.69,0,0,0,4-1.95l3.51,3.52,3.73-3.73-3.81-3.81a11.42,11.42,0,0,0,1.13-3.27h4.61v-5.27H89.71a12.3,12.3,0,0,0-1.25-3l3.6-3.6-3.73-3.73-3.49,3.5a11.8,11.8,0,0,0-3.5-1.58Zm1.76,16.25a4.84,4.84,0,1,1-4.84-4.83A4.84,4.84,0,0,1,83.1,167.26Z" style="fill:#f5f5f5"></path><path d="M95.71,270.22H84.08v10.16a26,26,0,0,0-9.66,3.94l-7.71-7.71-8.22,8.23,7.94,7.94a25.76,25.76,0,0,0-2.75,6.52H53.06v11.63H63.23a26,26,0,0,0,3.93,9.66l-6.73,6.74,8.22,8.22,7-7a26.14,26.14,0,0,0,8.46,3.2v10.16H95.71V331.33a26.09,26.09,0,0,0,8.84-4.31l7.75,7.76,8.23-8.23-8.41-8.4a26.2,26.2,0,0,0,2.51-7.22h10.16V299.3H114.17a25.76,25.76,0,0,0-2.75-6.52l7.94-7.94-8.22-8.23-7.71,7.71a26.06,26.06,0,0,0-7.72-3.48Zm3.88,35.86a10.67,10.67,0,1,1-10.66-10.66A10.68,10.68,0,0,1,99.59,306.08Z" style="fill:#f5f5f5"></path></g><g id="freepik--Shadow--inject-61"><path d="M456,440.82c0,3.52-89.51,6.37-199.94,6.37s-199.93-2.85-199.93-6.37,89.51-6.38,199.93-6.38S456,437.3,456,440.82Z" style="fill:#f5f5f5"></path></g><g id="freepik--Plant--inject-61"><path d="M367.37,436.81l6.47-35h-44l6.47,35a4.68,4.68,0,0,0,4.6,3.82h21.85A4.68,4.68,0,0,0,367.37,436.81Z" style="fill:#263238"></path><rect x="327.14" y="400.12" width="49.41" height="4.81" style="fill:#263238"></rect><rect x="327.14" y="400.12" width="49.41" height="4.81" style="fill:#fff;opacity:0.2"></rect><path d="M352.61,397.51s.2-16.63-24.42-18.31C328.19,379.2,331.12,398.08,352.61,397.51Z" style="fill:#407BFF"></path><path d="M352.43,387.54s-3.9-16.16,19.73-23.29C372.16,364.25,373.51,383.31,352.43,387.54Z" style="fill:#407BFF"></path><path d="M350.84,375.64s-.33-16.63-25-17.52C325.84,358.12,329.38,376.9,350.84,375.64Z" style="fill:#407BFF"></path><path d="M348.06,363.88s16.45,2.45,21.45-21.72C369.51,342.16,350.41,342.51,348.06,363.88Z" style="fill:#407BFF"></path><path d="M353.09,400.12c-.2-41.74-14.24-58.12-14.38-58.29a.49.49,0,0,0-.69,0,.48.48,0,0,0,0,.69c.14.16,13.94,16.27,14.14,57.64Z" style="fill:#407BFF"></path></g><g id="freepik--Table--inject-61"><rect x="209.41" y="99.97" width="218.58" height="218.58" style="fill:#fff"></rect><rect x="233.37" y="124.1" width="24.46" height="23.88" style="fill:#407BFF"></rect><rect x="233.37" y="124.1" width="24.46" height="23.88" style="fill:#fff;opacity:0.6000000000000001"></rect><rect x="306.47" y="172.95" width="24.46" height="23.88" style="fill:#407BFF"></rect><rect x="306.47" y="172.95" width="24.46" height="23.88" style="fill:#fff;opacity:0.6000000000000001"></rect><rect x="403.93" y="124.1" width="24.46" height="23.88" style="fill:#407BFF"></rect><rect x="403.93" y="124.1" width="24.46" height="23.88" style="fill:#fff;opacity:0.6000000000000001"></rect><rect x="379.57" y="196.82" width="24.46" height="23.88" style="fill:#407BFF"></rect><rect x="379.57" y="196.82" width="24.46" height="23.88" style="fill:#fff;opacity:0.6000000000000001"></rect><rect x="379.57" y="294.78" width="24.46" height="23.88" style="fill:#407BFF"></rect><rect x="379.57" y="294.78" width="24.46" height="23.88" style="fill:#fff;opacity:0.6000000000000001"></rect><rect x="233.37" y="246.05" width="24.46" height="23.88" style="fill:#407BFF"></rect><rect x="233.37" y="246.05" width="24.46" height="23.88" style="fill:#fff;opacity:0.6000000000000001"></rect><rect x="355.2" y="99.85" width="24.46" height="23.88" style="fill:#407BFF"></rect><rect x="355.2" y="99.85" width="24.46" height="23.88" style="fill:#fff;opacity:0.6000000000000001"></rect><rect x="257.73" y="196.82" width="24.46" height="23.88" style="fill:#407BFF"></rect><rect x="257.73" y="196.82" width="24.46" height="23.88" style="fill:#fff;opacity:0.6000000000000001"></rect><rect x="282.1" y="270.42" width="24.46" height="23.88" style="fill:#407BFF"></rect><rect x="282.1" y="270.42" width="24.46" height="23.88" style="fill:#fff;opacity:0.6000000000000001"></rect><path d="M258.14,148.7H233.06V123.61h25.08ZM233.78,148h23.64V124.33H233.78Z" style="fill:#263238"></path><path d="M233.78,124.33H208.69V99.25h25.09Zm-24.37-.72h23.65V100H209.41Z" style="fill:#263238"></path><path d="M258.14,124.33H233.06V99.25h25.08Zm-24.36-.72h23.64V100H233.78Z" style="fill:#263238"></path><path d="M282.51,124.33H257.42V99.25h25.09Zm-24.37-.72h23.65V100H258.14Z" style="fill:#263238"></path><path d="M233.78,148.7H208.69V123.61h25.09ZM209.41,148h23.65V124.33H209.41Z" style="fill:#263238"></path><path d="M282.51,148.7H257.42V123.61h25.09ZM258.14,148h23.65V124.33H258.14Z" style="fill:#263238"></path><path d="M233.78,173.07H208.69V148h25.09Zm-24.37-.72h23.65V148.7H209.41Z" style="fill:#263238"></path><path d="M258.14,173.07H233.06V148h25.08Zm-24.36-.72h23.64V148.7H233.78Z" style="fill:#263238"></path><path d="M282.51,173.07H257.42V148h25.09Zm-24.37-.72h23.65V148.7H258.14Z" style="fill:#263238"></path><path d="M355.61,173.07H281.79V99.25h73.82Zm-73.1-.72h72.38V100H282.51Z" style="fill:#263238"></path><path d="M306.88,124.33H281.79V99.25h25.09Zm-24.37-.72h23.65V100H282.51Z" style="fill:#263238"></path><path d="M331.24,124.33H306.16V99.25h25.08Zm-24.36-.72h23.64V100H306.88Z" style="fill:#263238"></path><path d="M355.61,124.33H330.52V99.25h25.09Zm-24.37-.72h23.65V100H331.24Z" style="fill:#263238"></path><path d="M306.88,148.7H281.79V123.61h25.09ZM282.51,148h23.65V124.33H282.51Z" style="fill:#263238"></path><path d="M355.61,148.7H330.52V123.61h25.09ZM331.24,148h23.65V124.33H331.24Z" style="fill:#263238"></path><path d="M306.88,173.07H281.79V148h25.09Zm-24.37-.72h23.65V148.7H282.51Z" style="fill:#263238"></path><path d="M331.24,173.07H306.16V148h25.08Zm-24.36-.72h23.64V148.7H306.88Z" style="fill:#263238"></path><path d="M355.61,173.07H330.52V148h25.09Zm-24.37-.72h23.65V148.7H331.24Z" style="fill:#263238"></path><path d="M428.71,173.07H354.89V99.25h73.82Zm-73.1-.72H428V100H355.61Z" style="fill:#263238"></path><path d="M380,124.33H354.89V99.25H380Zm-24.37-.72h23.65V100H355.61Z" style="fill:#263238"></path><path d="M404.34,124.33H379.26V99.25h25.08ZM380,123.61h23.64V100H380Z" style="fill:#263238"></path><path d="M428.71,124.33H403.62V99.25h25.09Zm-24.37-.72H428V100H404.34Z" style="fill:#263238"></path><path d="M380,148.7H354.89V123.61H380ZM355.61,148h23.65V124.33H355.61Z" style="fill:#263238"></path><path d="M428.71,148.7H403.62V123.61h25.09ZM404.34,148H428V124.33H404.34Z" style="fill:#263238"></path><path d="M380,173.07H354.89V148H380Zm-24.37-.72h23.65V148.7H355.61Z" style="fill:#263238"></path><path d="M404.34,173.07H379.26V148h25.08ZM380,172.35h23.64V148.7H380Z" style="fill:#263238"></path><path d="M428.71,173.07H403.62V148h25.09Zm-24.37-.72H428V148.7H404.34Z" style="fill:#263238"></path><path d="M282.51,246.16H208.69V172.35h73.82Zm-73.1-.71h72.38V173.07H209.41Z" style="fill:#263238"></path><path d="M233.78,197.43H208.69V172.35h25.09Zm-24.37-.72h23.65V173.07H209.41Z" style="fill:#263238"></path><path d="M258.14,197.43H233.06V172.35h25.08Zm-24.36-.72h23.64V173.07H233.78Z" style="fill:#263238"></path><path d="M282.51,197.43H257.42V172.35h25.09Zm-24.37-.72h23.65V173.07H258.14Z" style="fill:#263238"></path><path d="M233.78,221.8H208.69V196.71h25.09Zm-24.37-.72h23.65V197.43H209.41Z" style="fill:#263238"></path><path d="M282.51,221.8H257.42V196.71h25.09Zm-24.37-.72h23.65V197.43H258.14Z" style="fill:#263238"></path><path d="M233.78,246.16H208.69V221.08h25.09Zm-24.37-.71h23.65V221.8H209.41Z" style="fill:#263238"></path><path d="M258.14,246.16H233.06V221.08h25.08Zm-24.36-.71h23.64V221.8H233.78Z" style="fill:#263238"></path><path d="M282.51,246.16H257.42V221.08h25.09Zm-24.37-.71h23.65V221.8H258.14Z" style="fill:#263238"></path><path d="M355.61,246.16H281.79V172.35h73.82Zm-73.1-.71h72.38V173.07H282.51Z" style="fill:#263238"></path><path d="M306.88,197.43H281.79V172.35h25.09Zm-24.37-.72h23.65V173.07H282.51Z" style="fill:#263238"></path><path d="M331.24,197.43H306.16V172.35h25.08Zm-24.36-.72h23.64V173.07H306.88Z" style="fill:#263238"></path><path d="M355.61,197.43H330.52V172.35h25.09Zm-24.37-.72h23.65V173.07H331.24Z" style="fill:#263238"></path><path d="M306.88,221.8H281.79V196.71h25.09Zm-24.37-.72h23.65V197.43H282.51Z" style="fill:#263238"></path><path d="M355.61,221.8H330.52V196.71h25.09Zm-24.37-.72h23.65V197.43H331.24Z" style="fill:#263238"></path><path d="M306.88,246.16H281.79V221.08h25.09Zm-24.37-.71h23.65V221.8H282.51Z" style="fill:#263238"></path><path d="M331.24,246.16H306.16V221.08h25.08Zm-24.36-.71h23.64V221.8H306.88Z" style="fill:#263238"></path><path d="M355.61,246.16H330.52V221.08h25.09Zm-24.37-.71h23.65V221.8H331.24Z" style="fill:#263238"></path><path d="M428.71,246.16H354.89V172.35h73.82Zm-73.1-.71H428V173.07H355.61Z" style="fill:#263238"></path><path d="M380,197.43H354.89V172.35H380Zm-24.37-.72h23.65V173.07H355.61Z" style="fill:#263238"></path><path d="M404.34,197.43H379.26V172.35h25.08ZM380,196.71h23.64V173.07H380Z" style="fill:#263238"></path><path d="M428.71,197.43H403.62V172.35h25.09Zm-24.37-.72H428V173.07H404.34Z" style="fill:#263238"></path><path d="M380,221.8H354.89V196.71H380Zm-24.37-.72h23.65V197.43H355.61Z" style="fill:#263238"></path><path d="M428.71,221.8H403.62V196.71h25.09Zm-24.37-.72H428V197.43H404.34Z" style="fill:#263238"></path><path d="M380,246.16H354.89V221.08H380Zm-24.37-.71h23.65V221.8H355.61Z" style="fill:#263238"></path><path d="M404.34,246.16H379.26V221.08h25.08ZM380,245.45h23.64V221.8H380Z" style="fill:#263238"></path><path d="M428.71,246.16H403.62V221.08h25.09Zm-24.37-.71H428V221.8H404.34Z" style="fill:#263238"></path><path d="M282.51,319.26H208.69V245.45h73.82Zm-73.1-.72h72.38V246.16H209.41Z" style="fill:#263238"></path><path d="M233.78,270.53H208.69V245.45h25.09Zm-24.37-.72h23.65V246.16H209.41Z" style="fill:#263238"></path><path d="M258.14,270.53H233.06V245.45h25.08Zm-24.36-.72h23.64V246.16H233.78Z" style="fill:#263238"></path><path d="M282.51,270.53H257.42V245.45h25.09Zm-24.37-.72h23.65V246.16H258.14Z" style="fill:#263238"></path><path d="M233.78,294.9H208.69V269.81h25.09Zm-24.37-.72h23.65V270.53H209.41Z" style="fill:#263238"></path><path d="M282.51,294.9H257.42V269.81h25.09Zm-24.37-.72h23.65V270.53H258.14Z" style="fill:#263238"></path><path d="M233.78,319.26H208.69V294.18h25.09Zm-24.37-.72h23.65V294.9H209.41Z" style="fill:#263238"></path><path d="M258.14,319.26H233.06V294.18h25.08Zm-24.36-.72h23.64V294.9H233.78Z" style="fill:#263238"></path><path d="M282.51,319.26H257.42V294.18h25.09Zm-24.37-.72h23.65V294.9H258.14Z" style="fill:#263238"></path><path d="M355.61,319.26H281.79V245.45h73.82Zm-73.1-.72h72.38V246.16H282.51Z" style="fill:#263238"></path><path d="M306.88,270.53H281.79V245.45h25.09Zm-24.37-.72h23.65V246.16H282.51Z" style="fill:#263238"></path><path d="M331.24,270.53H306.16V245.45h25.08Zm-24.36-.72h23.64V246.16H306.88Z" style="fill:#263238"></path><path d="M355.61,270.53H330.52V245.45h25.09Zm-24.37-.72h23.65V246.16H331.24Z" style="fill:#263238"></path><path d="M306.88,294.9H281.79V269.81h25.09Zm-24.37-.72h23.65V270.53H282.51Z" style="fill:#263238"></path><path d="M355.61,294.9H330.52V269.81h25.09Zm-24.37-.72h23.65V270.53H331.24Z" style="fill:#263238"></path><path d="M306.88,319.26H281.79V294.18h25.09Zm-24.37-.72h23.65V294.9H282.51Z" style="fill:#263238"></path><path d="M331.24,319.26H306.16V294.18h25.08Zm-24.36-.72h23.64V294.9H306.88Z" style="fill:#263238"></path><path d="M355.61,319.26H330.52V294.18h25.09Zm-24.37-.72h23.65V294.9H331.24Z" style="fill:#263238"></path><path d="M428.71,319.26H354.89V245.45h73.82Zm-73.1-.72H428V246.16H355.61Z" style="fill:#263238"></path><path d="M380,270.53H354.89V245.45H380Zm-24.37-.72h23.65V246.16H355.61Z" style="fill:#263238"></path><path d="M404.34,270.53H379.26V245.45h25.08ZM380,269.81h23.64V246.16H380Z" style="fill:#263238"></path><path d="M428.71,270.53H403.62V245.45h25.09Zm-24.37-.72H428V246.16H404.34Z" style="fill:#263238"></path><path d="M380,294.9H354.89V269.81H380Zm-24.37-.72h23.65V270.53H355.61Z" style="fill:#263238"></path><path d="M428.71,294.9H403.62V269.81h25.09Zm-24.37-.72H428V270.53H404.34Z" style="fill:#263238"></path><path d="M380,319.26H354.89V294.18H380Zm-24.37-.72h23.65V294.9H355.61Z" style="fill:#263238"></path><path d="M404.34,319.26H379.26V294.18h25.08ZM380,318.54h23.64V294.9H380Z" style="fill:#263238"></path><path d="M428.71,319.26H403.62V294.18h25.09Zm-24.37-.72H428V294.9H404.34Z" style="fill:#263238"></path><path d="M356.69,174.14h-76v-76h76Zm-73.1-2.87h70.22V101.05H283.59Z" style="fill:#407BFF"></path><path d="M283.59,247.24h-76v-76h76Zm-73.1-2.87h70.22V174.14H210.49Z" style="fill:#407BFF"></path><path d="M356.69,247.24h-76v-76h76Zm-73.1-2.87h70.22V174.14H283.59Z" style="fill:#407BFF"></path><path d="M429.79,247.24h-76v-76h76Zm-73.1-2.87h70.22V174.14H356.69Z" style="fill:#407BFF"></path><path d="M283.59,320.34h-76v-76h76Zm-73.1-2.87h70.22V247.24H210.49Z" style="fill:#407BFF"></path><path d="M356.69,320.34h-76v-76h76Zm-73.1-2.87h70.22V247.24H283.59Z" style="fill:#407BFF"></path><path d="M429.79,320.34h-76v-76h76Zm-73.1-2.87h70.22V247.24H356.69Z" style="fill:#407BFF"></path><path d="M283.59,174.14h-76v-76h76Zm-73.1-2.87h70.22V101.05H210.49Z" style="fill:#407BFF"></path><path d="M429.79,174.14h-76v-76h76Zm-73.1-2.87h70.22V101.05H356.69Z" style="fill:#407BFF"></path><text transform="translate(217.01 117.78)" style="font-size:14.800069808959961px;fill:#263238;font-family:Poppins-Bold, Poppins;font-weight:700">3</text><text transform="translate(290.51 166.68)" style="font-size:14.800069808959961px;fill:#263238;font-family:Poppins-Bold, Poppins;font-weight:700">3</text><text transform="translate(242.23 142.08)" style="font-size:14.800069808959961px;fill:#263238;font-family:Poppins-Bold, Poppins;font-weight:700">1</text><text transform="translate(364.67 239.05)" style="font-size:14.800069808959961px;fill:#263238;font-family:Poppins-Bold, Poppins;font-weight:700">1</text><text transform="translate(243.95 312.44)" style="font-size:14.800069808959961px;fill:#263238;font-family:Poppins-Bold, Poppins;font-weight:700">1</text><text transform="translate(387.69 166.36)" style="font-size:14.800069808959961px;fill:#263238;font-family:Poppins-Bold, Poppins;font-weight:700">2</text><text transform="translate(240.77 264.31)" style="font-size:14.800069808959961px;fill:#263238;font-family:Poppins-Bold, Poppins;font-weight:700">2</text><text transform="translate(313.41 117.78)" style="font-size:14.800069808959961px;fill:#263238;font-family:Poppins-Bold, Poppins;font-weight:700">5</text><text transform="translate(387.11 312.44)" style="font-size:14.800069808959961px;fill:#263238;font-family:Poppins-Bold, Poppins;font-weight:700">5</text><text transform="translate(263.78 215.4)" style="font-size:14.800069808959961px;fill:#263238;font-family:Poppins-Bold, Poppins;font-weight:700">5</text><text transform="translate(217.01 215.4)" style="font-size:14.800069808959961px;fill:#263238;font-family:Poppins-Bold, Poppins;font-weight:700">4</text><text transform="translate(410.52 117.78)" style="font-size:14.800069808959961px;fill:#263238;font-family:Poppins-Bold, Poppins;font-weight:700">4</text><text transform="translate(241.07 191.07)" style="font-size:14.800069808959961px;fill:#263238;font-family:Poppins-Bold, Poppins;font-weight:700">7</text><text transform="translate(316.16 239.05)" style="font-size:14.800069808959961px;fill:#263238;font-family:Poppins-Bold, Poppins;font-weight:700">7</text><text transform="translate(314.86 191.07)" style="font-size:14.800069808959961px;fill:#263238;font-family:Poppins-Bold, Poppins;font-weight:700">6</text><text transform="translate(410.52 287.39)" style="font-size:14.800069808959961px;fill:#263238;font-family:Poppins-Bold, Poppins;font-weight:700">6</text><text transform="translate(338.51 313.09)" style="font-size:14.800069808959961px;fill:#263238;font-family:Poppins-Bold, Poppins;font-weight:700">7</text><text transform="translate(217.87 288.12)" style="font-size:14.800069808959961px;fill:#263238;font-family:Poppins-Bold, Poppins;font-weight:700">7</text><text transform="translate(290.51 264.31)" style="font-size:14.800069808959961px;fill:#263238;font-family:Poppins-Bold, Poppins;font-weight:700">9</text><text transform="translate(313.41 289.29)" style="font-size:14.800069808959961px;fill:#263238;font-family:Poppins-Bold, Poppins;font-weight:700">3</text><text transform="translate(363.36 117.78)" style="font-size:14.800069808959961px;fill:#263238;font-family:Poppins-Bold, Poppins;font-weight:700">3</text></g><g id="freepik--Gear--inject-61"><circle cx="127.5" cy="110.74" r="16.02" transform="translate(-40.96 122.59) rotate(-45)" style="fill:#407BFF"></circle><path d="M129.23,102.11h-3v2.59a6.59,6.59,0,0,0-2.46,1l-2-2-2.1,2.09,2,2a6.42,6.42,0,0,0-.7,1.66h-2.71v3H121a6.65,6.65,0,0,0,1,2.47l-1.72,1.72,2.09,2.09,1.78-1.78a6.49,6.49,0,0,0,2.16.82v2.59h3v-2.71a6.58,6.58,0,0,0,2.26-1.09l2,2,2.1-2.09-2.14-2.15a6.69,6.69,0,0,0,.64-1.84h2.59v-3h-2.71a6.79,6.79,0,0,0-.7-1.66l2-2-2.09-2.09-2,2a6.51,6.51,0,0,0-2-.89Zm1,9.14a2.72,2.72,0,1,1-2.72-2.72A2.72,2.72,0,0,1,130.22,111.25Z" style="fill:#fff"></path><path d="M127.5,130.82a.47.47,0,0,1-.47-.48v-1a.48.48,0,1,1,1,0v1A.47.47,0,0,1,127.5,130.82Z" style="fill:#407BFF"></path><path d="M127.5,153.74a.47.47,0,0,1-.47-.47v-1.92a.48.48,0,0,1,1,0v1.92A.47.47,0,0,1,127.5,153.74Zm0-5.73a.47.47,0,0,1-.47-.48v-1.91a.48.48,0,0,1,1,0v1.91A.47.47,0,0,1,127.5,148Zm0-5.73a.47.47,0,0,1-.47-.48v-1.91a.48.48,0,0,1,1,0v1.91A.47.47,0,0,1,127.5,142.28Zm0-5.73a.47.47,0,0,1-.47-.48v-1.91a.48.48,0,0,1,1,0v1.91A.47.47,0,0,1,127.5,136.55Z" style="fill:#407BFF"></path><path d="M128.46,158.52h-1A.47.47,0,0,1,127,158v-.95a.48.48,0,1,1,1,0v.47h.48a.49.49,0,0,1,.48.48A.48.48,0,0,1,128.46,158.52Z" style="fill:#407BFF"></path><path d="M150.18,158.52h-1.81a.48.48,0,0,1-.48-.48.49.49,0,0,1,.48-.48h1.81a.48.48,0,0,1,.48.48A.47.47,0,0,1,150.18,158.52Zm-5.43,0h-1.81a.48.48,0,0,1-.48-.48.49.49,0,0,1,.48-.48h1.81a.48.48,0,0,1,.48.48A.47.47,0,0,1,144.75,158.52Zm-5.43,0h-1.81A.48.48,0,0,1,137,158a.49.49,0,0,1,.48-.48h1.81a.49.49,0,0,1,.48.48A.48.48,0,0,1,139.32,158.52Zm-5.43,0h-1.81a.48.48,0,0,1-.48-.48.49.49,0,0,1,.48-.48h1.81a.49.49,0,0,1,.48.48A.48.48,0,0,1,133.89,158.52Z" style="fill:#407BFF"></path><path d="M154.76,158.52h-1a.48.48,0,0,1-.48-.48.49.49,0,0,1,.48-.48h1a.49.49,0,0,1,.48.48A.48.48,0,0,1,154.76,158.52Z" style="fill:#407BFF"></path></g><g id="freepik--Character--inject-61"><path d="M157.87,189.8c-2.57,7.32-5.43,14.43-8.51,21.53-1.52,3.55-3.14,7.07-4.81,10.6s-3.44,7-5.46,10.6c-.52.89-1,1.78-1.64,2.73l-.89,1.41-1,1.41a53.18,53.18,0,0,1-4.2,4.93,101.86,101.86,0,0,1-8.93,8.22,164.11,164.11,0,0,1-19.21,13.62l-4.71-6.36c2.68-2.55,5.47-5.15,8.1-7.8s5.27-5.31,7.78-8,4.89-5.45,7-8.22c1-1.39,2-2.78,2.82-4.11l.56-1,.54-1.08c.35-.68.71-1.5,1.07-2.3,1.44-3.24,2.88-6.67,4.22-10.16s2.72-7,4.07-10.5c2.7-7,5.4-14.15,8.22-21.12Z" style="fill:#407BFF"></path><path d="M157.87,189.8c-2.57,7.32-5.43,14.43-8.51,21.53-1.52,3.55-3.14,7.07-4.81,10.6s-3.44,7-5.46,10.6c-.52.89-1,1.78-1.64,2.73l-.89,1.41-1,1.41a53.18,53.18,0,0,1-4.2,4.93,101.86,101.86,0,0,1-8.93,8.22,164.11,164.11,0,0,1-19.21,13.62l-4.71-6.36c2.68-2.55,5.47-5.15,8.1-7.8s5.27-5.31,7.78-8,4.89-5.45,7-8.22c1-1.39,2-2.78,2.82-4.11l.56-1,.54-1.08c.35-.68.71-1.5,1.07-2.3,1.44-3.24,2.88-6.67,4.22-10.16s2.72-7,4.07-10.5c2.7-7,5.4-14.15,8.22-21.12Z" style="fill:#fff;opacity:0.30000000000000004"></path><polygon points="193.28 424.09 195.17 433.63 200.22 433.63 200.89 424.09 193.28 424.09" style="fill:#ff8b7b"></polygon><path d="M199.55,432.42a2.2,2.2,0,0,1,2.17-.78,9,9,0,0,1,2.81,2.4s6.58,2.11,8.36,2.22,3.33,1.11,4,4.56H195.33s-.85-7.78-1-9.12,2,.34,2,.34Z" style="fill:#407BFF"></path><path d="M216.25,439.79l-3.89,0-17-.18a.17.17,0,0,1,0-.33h1.16a.06.06,0,0,1,0,0,3.56,3.56,0,0,0-1.76-4.56c-.19-.1,0-.39.17-.28a3.87,3.87,0,0,1,1.92,4.88l2.39,0,17,.18A.17.17,0,0,1,216.25,439.79Z"></path><path d="M203.76,435.39a2.1,2.1,0,0,1,3.08-.56c.17.13.34-.16.17-.29a2.43,2.43,0,0,0-3.54.68c-.12.18.17.34.29.17Z" style="fill:#fff"></path><path d="M205.62,436a2.1,2.1,0,0,1,3.08-.56c.17.13.34-.16.17-.28a2.42,2.42,0,0,0-3.54.67c-.12.18.17.34.29.17Z" style="fill:#fff"></path><path d="M207.54,436.51a2.1,2.1,0,0,1,3.08-.56c.17.13.34-.16.17-.28a2.42,2.42,0,0,0-3.54.67c-.13.18.16.35.29.17Z" style="fill:#fff"></path><polygon points="148.12 424.16 149.17 433.63 154.22 433.63 155.73 424.16 148.12 424.16" style="fill:#ff8b7b"></polygon><path d="M153.55,432.42a2.2,2.2,0,0,1,2.17-.78,8.94,8.94,0,0,1,2.8,2.4s6.59,2.11,8.37,2.22,3.33,1.11,4,4.56H149.33s-.85-7.78-1-9.12,2,.34,2,.34Z" style="fill:#407BFF"></path><path d="M170.25,439.79l-3.89,0-17-.18a.17.17,0,0,1,0-.33h1.15l0,0a3.56,3.56,0,0,0-1.76-4.56c-.19-.1,0-.39.17-.28a3.87,3.87,0,0,1,1.92,4.88l2.39,0,17,.18A.17.17,0,0,1,170.25,439.79Z"></path><path d="M157.76,435.39a2.1,2.1,0,0,1,3.08-.56c.17.13.34-.16.17-.29a2.43,2.43,0,0,0-3.54.68c-.12.18.17.34.29.17Z" style="fill:#fff"></path><path d="M159.62,436a2.1,2.1,0,0,1,3.08-.56c.17.13.34-.16.17-.28a2.42,2.42,0,0,0-3.54.67c-.12.18.16.34.29.17Z" style="fill:#fff"></path><path d="M161.54,436.51a2.1,2.1,0,0,1,3.08-.56c.17.13.34-.16.17-.28a2.42,2.42,0,0,0-3.54.67c-.13.18.16.35.29.17Z" style="fill:#fff"></path><path d="M191.6,424.42h11.14c1-14.34,3.69-61.87,1.54-85.39,1.55-32.63-3.44-75.95-3.44-75.95H165.55s2.59,29,14.2,75.48C179.67,375.4,188.66,412.22,191.6,424.42Z" style="fill:#263238"></path><path d="M177.84,330.75c6.38-26.06.78-59.84.78-59.84l-5.5,38.59Z" style="opacity:0.2"></path><polygon points="190.27 424.14 191.09 428.38 203.87 428.32 203.87 424.09 190.27 424.14" style="fill:#263238"></polygon><path d="M146.53,424.83h11.14c4-14.75,11.94-62.19,13.22-85.71,6.31-32.64,9.33-76,9.33-76H143.84s-1.69,29.26,1.44,75.84C144.35,379.46,146.28,412.22,146.53,424.83Z" style="fill:#263238"></path><polygon points="145.56 424.13 145.54 428.33 158.41 428.33 159.09 424.13 145.56 424.13" style="fill:#263238"></polygon><path d="M205.08,269.19c-24.47,9.41-64,1.8-64,1.8.47-12,.88-35.67.72-55.37,0-.46,0-.91,0-1.37,0-2.8-.07-5.5-.12-8.06,0-.32,0-.63,0-.93-.11-5-.29-9.49-.53-13.06-.44-6.71,3.2-12.95,9.84-14.07,2-.34,4.19-.64,6.46-.88l1.64-.17a160.51,160.51,0,0,1,19.48-.71l.94,0,.5,0,.82,0c2.8.11,5.46.32,7.85.63,5.41.7,10.22,5,10.31,10.44.08,5,.57,15.58,1.28,27.5.27,4.51.57,9.24.9,13.91C202.44,247.34,205.08,264.48,205.08,269.19Z" style="fill:#407BFF"></path><path d="M205.08,269.19c-24.47,9.41-64,1.8-64,1.8.3-7.53.57-19.71.69-32.61,0-3.63.06-7.33.06-11,0-4,0-8,0-11.77,0-.46,0-.91,0-1.37,0-2.8-.07-5.5-.12-8.06,0-.32,0-.63,0-.93-.11-5-.29-9.49-.53-13.06-.44-6.71,3.2-12.95,9.84-14.07,2-.34,4.19-.64,6.46-.88l1.64-.17a160.51,160.51,0,0,1,19.48-.71l.94,0,.5,0,.82,0c2.8.11,5.46.32,7.85.63,5.41.7,10.22,5,10.31,10.44.08,5,.57,15.58,1.28,27.5.27,4.51.57,9.24.9,13.91C202.44,247.34,205.08,264.48,205.08,269.19Z" style="fill:#fff;opacity:0.30000000000000004"></path><path d="M150.26,208.84c-.16.83-4,20.64-8.46,29.54,0-3.63.06-7.33.06-11v0A137.81,137.81,0,0,0,150.26,208.84Z" style="opacity:0.2"></path><path d="M201.16,228.93a142.57,142.57,0,0,1-20.22-44.12L200.26,215C200.53,219.53,200.83,224.26,201.16,228.93Z" style="opacity:0.2"></path><path d="M168.87,163.14s-10.67-17.6,3.6-21.28c.1-2,8.38-5.52,17.21-1.51s2,15.09,2,15.09Z" style="fill:#263238"></path><path d="M179,174h0a.25.25,0,0,0,0,.07l-1.43,3.71a12.84,12.84,0,0,0-.2,4.18c.71,1.24.83,3.89-2.15,3.58-3.77-.39-10.15-6.29-10.21-8,2.29-5,4.48-11.14,4.73-16.08l3.79,5.1Z" style="fill:#ff8b7b"></path><g style="opacity:0.2"><path d="M179,174l-1.43,3.71c-2.23-1.33-3.19-3.81-3.48-6.38-.2-1.85-.46-3.55.28-3.57Z"></path></g><path d="M189.33,167.08c-.31.8-.65,1.59-1,2.37-3.14,6.86-12,6.55-16.88.71l0,0a13.13,13.13,0,0,1-1.2-1.69c-3-4.94-1.72-8.35-.34-16.26a11,11,0,0,1,17.22-7.09C193.36,149.59,192.47,159,189.33,167.08Z" style="fill:#ff8b7b"></path><path d="M174.23,143.83s8.73,7.13,17.2,5.42a7.85,7.85,0,0,0-6.2-6.25A20.46,20.46,0,0,0,174.23,143.83Z" style="fill:#263238"></path><path d="M180.94,146.7s.33,5.86-6.11,4.68-3.75-5.63-3.75-5.63S175.74,140.4,180.94,146.7Z" style="fill:#263238"></path><path d="M176.77,149.56s-2.28,7.1-6,6.8.28-9.05.28-9.05Z" style="fill:#263238"></path><path d="M183.9,166.14h0a3.67,3.67,0,0,1-2.88-.7,4.28,4.28,0,0,1-1.39-2.74.27.27,0,0,1,.25-.28.27.27,0,0,1,.28.24,3.75,3.75,0,0,0,1.2,2.38,3.14,3.14,0,0,0,2.48.57.27.27,0,0,1,.29.23A.26.26,0,0,1,183.9,166.14Z" style="fill:#263238"></path><path d="M165.3,156.59a7.61,7.61,0,0,0,2.5,5.26c2,1.78,4.17.28,4.59-2.22.39-2.24-.19-5.88-2.66-6.7s-4.53,1.19-4.43,3.66" style="fill:#ff8b7b"></path><path d="M181.84,157.23c-.15.61.06,1.19.46,1.28s.84-.32,1-.94-.06-1.18-.46-1.28-.85.32-1,.94" style="fill:#263238"></path><path d="M188.59,158.76c-.15.61,0,1.19.46,1.28s.84-.32,1-.93-.06-1.19-.46-1.29-.85.32-1,.94" style="fill:#263238"></path><path d="M190.87,156.73a.32.32,0,0,1-.23-.23,1.65,1.65,0,0,0-.76-1.06,1.94,1.94,0,0,0-1.31-.11.32.32,0,0,1-.19-.61,2.56,2.56,0,0,1,1.8.16,2.24,2.24,0,0,1,1.07,1.45.31.31,0,0,1-.22.39A.29.29,0,0,1,190.87,156.73Z" style="fill:#263238"></path><path d="M180.24,154.23a.27.27,0,0,1-.14-.07.34.34,0,0,1,0-.48,2.66,2.66,0,0,1,1.72-.92,2.4,2.4,0,0,1,1.83.68.34.34,0,0,1,0,.48.35.35,0,0,1-.49,0,1.81,1.81,0,0,0-1.32-.52,2,2,0,0,0-1.25.68A.36.36,0,0,1,180.24,154.23Z" style="fill:#263238"></path><path d="M185.67,157.49a19.79,19.79,0,0,0,1.18,4.77c.85,2-2.52,1.22-2.52,1.22Z" style="fill:#ff5652"></path><path d="M209.79,225.79a7.94,7.94,0,0,1-10-3.16l-.39-.66-.78-1.33c-.13-.22-.26-.44-.38-.67-.43-.71-.84-1.44-1.26-2.17l-1.39-2.42q-.67-1.22-1.38-2.43c-.46-.81-.92-1.62-1.37-2.43l-1.36-2.44-.16-.3-2.54-4.6q-2.68-4.92-5.27-9.88c-1.72-3.33-2.81-6.71-4.41-10.11l6.43-4.55c2.47,2.83,4.83,5.73,7.18,8.64l.78,1,3.91-5.9c1.34,2.36,4.09,7.85,5.34,10.27s2.48,4.84,3.68,7.28,2.4,4.88,3.56,7.34,2.32,4.93,3.45,7.4l.31.7A7.88,7.88,0,0,1,209.79,225.79Z" style="fill:#407BFF"></path><path d="M209.79,225.79a7.94,7.94,0,0,1-10-3.16l-.39-.66-.78-1.33c-.13-.22-.26-.44-.38-.67-.43-.71-.84-1.44-1.26-2.17l-1.39-2.42q-.67-1.22-1.38-2.43c-.46-.81-.92-1.62-1.37-2.43l-1.36-2.44-.16-.3-2.54-4.6q-2.68-4.92-5.27-9.88c-1.72-3.33-2.81-6.71-4.41-10.11l6.43-4.55c2.47,2.83,4.83,5.73,7.18,8.64l.78,1,3.91-5.9c1.34,2.36,4.09,7.85,5.34,10.27s2.48,4.84,3.68,7.28,2.4,4.88,3.56,7.34,2.32,4.93,3.45,7.4l.31.7A7.88,7.88,0,0,1,209.79,225.79Z" style="fill:#fff;opacity:0.30000000000000004"></path><path d="M185.49,180.46c-.17,1.36-1.15,3.47-3.13,3.4a11.16,11.16,0,0,1-3.6-.78,0,0,0,0,0,0,0c-1.52-.38-4.36-1.34-5.33-3.21-1.37-2.62.77-6.72.77-6.72-2.22-2.11-4.85-5.73-3-4.9s9,5.86,11.63,5.29c2.4-.53,3.24-2.62,4.13-2.19s-.88,2.34-1.84,4.28A16.58,16.58,0,0,1,185.49,180.46Z" style="fill:#ff8b7b"></path><g style="opacity:0.2"><path d="M187.29,171.27a.23.23,0,0,1-.3.12c-1.05-.42-1.66.31-2.31,1.24l-.17.25c-.7,1-1.71,1.9-5.64.18a26.12,26.12,0,0,1-5.17-3.15c-1.18-.86-2.12-1.55-2.88-1.57,0,0,0,0,0,.06s-.1.3.23,1c.6,1.25,3.28,3.56,3.3,3.58a.23.23,0,0,1,0,.29s-2,3.29-1.27,5.33c.39,1.12,1.88,2.24,3.15,3l-.13.48c-1.34-.82-3-2.05-3.44-3.34-.71-2,.8-4.85,1.21-5.57a16.7,16.7,0,0,1-3.27-3.6c-.32-.64-.39-1.11-.22-1.41a.53.53,0,0,1,.4-.27c.92,0,1.86.7,3.16,1.66a25.33,25.33,0,0,0,5.08,3.09c3.92,1.72,4.62.67,5.08,0l.18-.26c.51-.74,1.38-2,2.85-1.39A.23.23,0,0,1,187.29,171.27Z"></path></g><path d="M187.76,180.18l19.18,29.19S204.7,199.59,187.76,180.18Z" style="opacity:0.2"></path><path d="M181.77,161.46a3.29,3.29,0,1,1,3.29-3.29A3.3,3.3,0,0,1,181.77,161.46Zm0-6.34a3,3,0,1,0,3,3A3.06,3.06,0,0,0,181.77,155.12Z" style="fill:#fff"></path><path d="M189.71,163.16a3.29,3.29,0,1,1,3.29-3.29A3.29,3.29,0,0,1,189.71,163.16Zm0-6.33a3,3,0,1,0,3,3A3,3,0,0,0,189.71,156.83Z" style="fill:#fff"></path><path d="M178.81,157.15a.11.11,0,0,1-.1-.06c-2.39-3.88-7.18-2.85-7.22-2.84a.13.13,0,0,1-.06-.25s5-1.07,7.49,3a.13.13,0,0,1,0,.17A.1.1,0,0,1,178.81,157.15Z" style="fill:#fff"></path><path d="M186.94,158.46a.11.11,0,0,1-.09,0,1.61,1.61,0,0,0-1.86-.37.13.13,0,0,1-.17-.06.11.11,0,0,1,.06-.16,1.84,1.84,0,0,1,2.16.43.12.12,0,0,1,0,.17Z" style="fill:#fff"></path><rect x="103.71" y="211.83" width="26.69" height="214.15" transform="translate(-27.08 11.29) rotate(-4.95)" style="fill:#407BFF"></rect><g style="opacity:0.2"><rect x="103.71" y="211.83" width="26.69" height="214.15" transform="translate(-27.08 11.29) rotate(-4.95)" style="fill:#407BFF"></rect></g><rect x="124" y="211.15" width="1.78" height="214.15" transform="translate(-26.99 11.96) rotate(-4.95)" style="opacity:0.2"></rect><rect x="116.16" y="211.83" width="1.78" height="214.15" transform="translate(-27.08 11.29) rotate(-4.95)" style="opacity:0.2"></rect><rect x="108.33" y="212.51" width="1.78" height="214.15" transform="translate(-27.17 10.62) rotate(-4.95)" style="opacity:0.2"></rect><rect x="112.46" y="414.4" width="26.69" height="11.2" transform="translate(-35.77 12.42) rotate(-4.95)" style="fill:#263238"></rect><path d="M139.59,424.42l.27,3.18a13.35,13.35,0,0,1-12.14,14.45h0a13.35,13.35,0,0,1-14.45-12.15l-.28-3.17Z" style="fill:#407BFF"></path><g style="opacity:0.6000000000000001"><path d="M139.59,424.42l.27,3.18a13.35,13.35,0,0,1-12.14,14.45h0a13.35,13.35,0,0,1-14.45-12.15l-.28-3.17Z" style="fill:#fff"></path></g><polygon points="94.52 213.38 121.11 211.08 111.67 193.91 109.7 190.33 104.15 180.24 100.86 191.54 99.58 195.95 94.52 213.38" style="fill:#407BFF"></polygon><g style="opacity:0.5"><polygon points="94.52 213.38 121.11 211.08 111.67 193.91 109.7 190.33 104.15 180.24 100.86 191.54 99.58 195.95 94.52 213.38" style="fill:#fff"></polygon></g><path d="M100.87,191.54a13.68,13.68,0,0,0,4.28.25,9.6,9.6,0,0,0,4.55-1.46l-5.55-10.09Z" style="fill:#263238"></path><path d="M96,253.65s-.55-.44-.08-2.36a10,10,0,0,1,1.59-3.66l.55,5.5s3.87,1.42,4.49,4.21c1.27,5.62-2.25,7.65-3.38,8.14s-3.58-2.55-4.13-6A9.16,9.16,0,0,1,96,253.65Z" style="fill:#ff8b7b"></path></g></svg>
